# xmcd
#
# Track frame offsets:
#	150
#	26585
#	48920
#	69077
#	101035
#	128200
#	152767
#	175415
#	198372
#	223105
#
# Disc length: 3290 seconds
#
# Revision: 1
# Processed by: cddbd v1.5.1PL0 Copyright (c) Steve Scherf et al.
# Submitted via: CDex 1.50Beta5
#
DISCID=880cd80a
DTITLE=上領亘 - 鴉
DYEAR=1996
DGENRE=Rock
TTITLE0=VOIX
TTITLE1=鴉
TTITLE2=風
TTITLE3=LIGHTS ON MY SHADOW
TTITLE4=I Love You
TTITLE5=君
TTITLE6=Because of Love
TTITLE7=Fascination
TTITLE8=雨
TTITLE9=MAY
EXTD=
EXTT0=
EXTT1=
EXTT2=
EXTT3=
EXTT4=
EXTT5=
EXTT6=
EXTT7=
EXTT8=
EXTT9=
PLAYORDER=
